<svg width="1240" height="608" viewBox="0 0 1240 608" fill="none" xmlns="http://www.w3.org/2000/svg">
<mask id="mask0_28_509" style="mask-type:alpha" maskUnits="userSpaceOnUse" x="0" y="0" width="1240" height="709">
<rect x="0.5" y="0.5" width="59" height="59" stroke="black"/>
<rect x="59.5" y="0.5" width="59" height="59" stroke="black"/>
<rect x="118.5" y="0.5" width="59" height="59" stroke="black"/>
<rect x="177.5" y="0.5" width="59" height="59" stroke="black"/>
<rect x="236.5" y="0.5" width="59" height="59" stroke="black"/>
<rect x="295.5" y="0.5" width="59" height="59" stroke="black"/>
<rect x="354.5" y="0.5" width="59" height="59" stroke="black"/>
<rect x="413.5" y="0.5" width="59" height="59" stroke="black"/>
<rect x="472.5" y="0.5" width="59" height="59" stroke="black"/>
<rect x="531.5" y="0.5" width="59" height="59" stroke="black"/>
<rect x="590.5" y="0.5" width="59" height="59" stroke="black"/>
<rect x="649.5" y="0.5" width="59" height="59" stroke="black"/>
<rect x="708.5" y="0.5" width="59" height="59" stroke="black"/>
<rect x="767.5" y="0.5" width="59" height="59" stroke="black"/>
<rect x="826.5" y="0.5" width="59" height="59" stroke="black"/>
<rect x="885.5" y="0.5" width="59" height="59" stroke="black"/>
<rect x="944.5" y="0.5" width="59" height="59" stroke="black"/>
<rect x="1003.5" y="0.5" width="59" height="59" stroke="black"/>
<rect x="1062.5" y="0.5" width="59" height="59" stroke="black"/>
<rect x="1121.5" y="0.5" width="59" height="59" stroke="black"/>
<rect x="1180.5" y="0.5" width="59" height="59" stroke="black"/>
<rect x="0.5" y="59.5" width="59" height="59" stroke="black"/>
<rect x="59.5" y="59.5" width="59" height="59" stroke="black"/>
<rect x="118.5" y="59.5" width="59" height="59" stroke="black"/>
<rect x="177.5" y="59.5" width="59" height="59" stroke="black"/>
<rect x="236.5" y="59.5" width="59" height="59" stroke="black"/>
<rect x="295.5" y="59.5" width="59" height="59" stroke="black"/>
<rect x="354.5" y="59.5" width="59" height="59" stroke="black"/>
<rect x="413.5" y="59.5" width="59" height="59" stroke="black"/>
<rect x="472.5" y="59.5" width="59" height="59" stroke="black"/>
<rect x="531.5" y="59.5" width="59" height="59" stroke="black"/>
<rect x="590.5" y="59.5" width="59" height="59" stroke="black"/>
<rect x="649.5" y="59.5" width="59" height="59" stroke="black"/>
<rect x="708.5" y="59.5" width="59" height="59" stroke="black"/>
<rect x="767.5" y="59.5" width="59" height="59" stroke="black"/>
<rect x="826.5" y="59.5" width="59" height="59" stroke="black"/>
<rect x="885.5" y="59.5" width="59" height="59" stroke="black"/>
<rect x="944.5" y="59.5" width="59" height="59" stroke="black"/>
<rect x="1003.5" y="59.5" width="59" height="59" stroke="black"/>
<rect x="1062.5" y="59.5" width="59" height="59" stroke="black"/>
<rect x="1121.5" y="59.5" width="59" height="59" stroke="black"/>
<rect x="1180.5" y="59.5" width="59" height="59" stroke="black"/>
<rect x="0.5" y="118.5" width="59" height="59" stroke="black"/>
<rect x="59.5" y="118.5" width="59" height="59" stroke="black"/>
<rect x="118.5" y="118.5" width="59" height="59" stroke="black"/>
<rect x="177.5" y="118.5" width="59" height="59" stroke="black"/>
<rect x="236.5" y="118.5" width="59" height="59" stroke="black"/>
<rect x="295.5" y="118.5" width="59" height="59" stroke="black"/>
<rect x="354.5" y="118.5" width="59" height="59" stroke="black"/>
<rect x="413.5" y="118.5" width="59" height="59" stroke="black"/>
<rect x="472.5" y="118.5" width="59" height="59" stroke="black"/>
<rect x="531.5" y="118.5" width="59" height="59" stroke="black"/>
<rect x="590.5" y="118.5" width="59" height="59" stroke="black"/>
<rect x="649.5" y="118.5" width="59" height="59" stroke="black"/>
<rect x="708.5" y="118.5" width="59" height="59" stroke="black"/>
<rect x="767.5" y="118.5" width="59" height="59" stroke="black"/>
<rect x="826.5" y="118.5" width="59" height="59" stroke="black"/>
<rect x="885.5" y="118.5" width="59" height="59" stroke="black"/>
<rect x="944.5" y="118.5" width="59" height="59" stroke="black"/>
<rect x="1003.5" y="118.5" width="59" height="59" stroke="black"/>
<rect x="1062.5" y="118.5" width="59" height="59" stroke="black"/>
<rect x="1121.5" y="118.5" width="59" height="59" stroke="black"/>
<rect x="1180.5" y="118.5" width="59" height="59" stroke="black"/>
<rect x="0.5" y="177.5" width="59" height="59" stroke="black"/>
<rect x="59.5" y="177.5" width="59" height="59" stroke="black"/>
<rect x="118.5" y="177.5" width="59" height="59" stroke="black"/>
<rect x="177.5" y="177.5" width="59" height="59" stroke="black"/>
<rect x="236.5" y="177.5" width="59" height="59" stroke="black"/>
<rect x="295.5" y="177.5" width="59" height="59" stroke="black"/>
<rect x="354.5" y="177.5" width="59" height="59" stroke="black"/>
<rect x="413.5" y="177.5" width="59" height="59" stroke="black"/>
<rect x="472.5" y="177.5" width="59" height="59" stroke="black"/>
<rect x="531.5" y="177.5" width="59" height="59" stroke="black"/>
<rect x="590.5" y="177.5" width="59" height="59" stroke="black"/>
<rect x="649.5" y="177.5" width="59" height="59" stroke="black"/>
<rect x="708.5" y="177.5" width="59" height="59" stroke="black"/>
<rect x="767.5" y="177.5" width="59" height="59" stroke="black"/>
<rect x="826.5" y="177.5" width="59" height="59" stroke="black"/>
<rect x="885.5" y="177.5" width="59" height="59" stroke="black"/>
<rect x="944.5" y="177.5" width="59" height="59" stroke="black"/>
<rect x="1003.5" y="177.5" width="59" height="59" stroke="black"/>
<rect x="1062.5" y="177.5" width="59" height="59" stroke="black"/>
<rect x="1121.5" y="177.5" width="59" height="59" stroke="black"/>
<rect x="1180.5" y="177.5" width="59" height="59" stroke="black"/>
<rect x="0.5" y="236.5" width="59" height="59" stroke="black"/>
<rect x="59.5" y="236.5" width="59" height="59" stroke="black"/>
<rect x="118.5" y="236.5" width="59" height="59" stroke="black"/>
<rect x="177.5" y="236.5" width="59" height="59" stroke="black"/>
<rect x="236.5" y="236.5" width="59" height="59" stroke="black"/>
<rect x="295.5" y="236.5" width="59" height="59" stroke="black"/>
<rect x="354.5" y="236.5" width="59" height="59" stroke="black"/>
<rect x="413.5" y="236.5" width="59" height="59" stroke="black"/>
<rect x="472.5" y="236.5" width="59" height="59" stroke="black"/>
<rect x="531.5" y="236.5" width="59" height="59" stroke="black"/>
<rect x="590.5" y="236.5" width="59" height="59" stroke="black"/>
<rect x="649.5" y="236.5" width="59" height="59" stroke="black"/>
<rect x="708.5" y="236.5" width="59" height="59" stroke="black"/>
<rect x="767.5" y="236.5" width="59" height="59" stroke="black"/>
<rect x="826.5" y="236.5" width="59" height="59" stroke="black"/>
<rect x="885.5" y="236.5" width="59" height="59" stroke="black"/>
<rect x="944.5" y="236.5" width="59" height="59" stroke="black"/>
<rect x="1003.5" y="236.5" width="59" height="59" stroke="black"/>
<rect x="1062.5" y="236.5" width="59" height="59" stroke="black"/>
<rect x="1121.5" y="236.5" width="59" height="59" stroke="black"/>
<rect x="1180.5" y="236.5" width="59" height="59" stroke="black"/>
<rect x="0.5" y="295.5" width="59" height="59" stroke="black"/>
<rect x="59.5" y="295.5" width="59" height="59" stroke="black"/>
<rect x="118.5" y="295.5" width="59" height="59" stroke="black"/>
<rect x="177.5" y="295.5" width="59" height="59" stroke="black"/>
<rect x="236.5" y="295.5" width="59" height="59" stroke="black"/>
<rect x="295.5" y="295.5" width="59" height="59" stroke="black"/>
<rect x="354.5" y="295.5" width="59" height="59" stroke="black"/>
<rect x="413.5" y="295.5" width="59" height="59" stroke="black"/>
<rect x="472.5" y="295.5" width="59" height="59" stroke="black"/>
<rect x="531.5" y="295.5" width="59" height="59" stroke="black"/>
<rect x="590.5" y="295.5" width="59" height="59" stroke="black"/>
<rect x="649.5" y="295.5" width="59" height="59" stroke="black"/>
<rect x="708.5" y="295.5" width="59" height="59" stroke="black"/>
<rect x="767.5" y="295.5" width="59" height="59" stroke="black"/>
<rect x="826.5" y="295.5" width="59" height="59" stroke="black"/>
<rect x="885.5" y="295.5" width="59" height="59" stroke="black"/>
<rect x="944.5" y="295.5" width="59" height="59" stroke="black"/>
<rect x="1003.5" y="295.5" width="59" height="59" stroke="black"/>
<rect x="1062.5" y="295.5" width="59" height="59" stroke="black"/>
<rect x="1121.5" y="295.5" width="59" height="59" stroke="black"/>
<rect x="1180.5" y="295.5" width="59" height="59" stroke="black"/>
<rect x="0.5" y="354.5" width="59" height="59" stroke="black"/>
<rect x="59.5" y="354.5" width="59" height="59" stroke="black"/>
<rect x="118.5" y="354.5" width="59" height="59" stroke="black"/>
<rect x="177.5" y="354.5" width="59" height="59" stroke="black"/>
<rect x="236.5" y="354.5" width="59" height="59" stroke="black"/>
<rect x="295.5" y="354.5" width="59" height="59" stroke="black"/>
<rect x="354.5" y="354.5" width="59" height="59" stroke="black"/>
<rect x="413.5" y="354.5" width="59" height="59" stroke="black"/>
<rect x="472.5" y="354.5" width="59" height="59" stroke="black"/>
<rect x="531.5" y="354.5" width="59" height="59" stroke="black"/>
<rect x="590.5" y="354.5" width="59" height="59" stroke="black"/>
<rect x="649.5" y="354.5" width="59" height="59" stroke="black"/>
<rect x="708.5" y="354.5" width="59" height="59" stroke="black"/>
<rect x="767.5" y="354.5" width="59" height="59" stroke="black"/>
<rect x="826.5" y="354.5" width="59" height="59" stroke="black"/>
<rect x="885.5" y="354.5" width="59" height="59" stroke="black"/>
<rect x="944.5" y="354.5" width="59" height="59" stroke="black"/>
<rect x="1003.5" y="354.5" width="59" height="59" stroke="black"/>
<rect x="1062.5" y="354.5" width="59" height="59" stroke="black"/>
<rect x="1121.5" y="354.5" width="59" height="59" stroke="black"/>
<rect x="1180.5" y="354.5" width="59" height="59" stroke="black"/>
<rect x="0.5" y="413.5" width="59" height="59" stroke="black"/>
<rect x="59.5" y="413.5" width="59" height="59" stroke="black"/>
<rect x="118.5" y="413.5" width="59" height="59" stroke="black"/>
<rect x="177.5" y="413.5" width="59" height="59" stroke="black"/>
<rect x="236.5" y="413.5" width="59" height="59" stroke="black"/>
<rect x="295.5" y="413.5" width="59" height="59" stroke="black"/>
<rect x="354.5" y="413.5" width="59" height="59" stroke="black"/>
<rect x="413.5" y="413.5" width="59" height="59" stroke="black"/>
<rect x="472.5" y="413.5" width="59" height="59" stroke="black"/>
<rect x="531.5" y="413.5" width="59" height="59" stroke="black"/>
<rect x="590.5" y="413.5" width="59" height="59" stroke="black"/>
<rect x="649.5" y="413.5" width="59" height="59" stroke="black"/>
<rect x="708.5" y="413.5" width="59" height="59" stroke="black"/>
<rect x="767.5" y="413.5" width="59" height="59" stroke="black"/>
<rect x="826.5" y="413.5" width="59" height="59" stroke="black"/>
<rect x="885.5" y="413.5" width="59" height="59" stroke="black"/>
<rect x="944.5" y="413.5" width="59" height="59" stroke="black"/>
<rect x="1003.5" y="413.5" width="59" height="59" stroke="black"/>
<rect x="1062.5" y="413.5" width="59" height="59" stroke="black"/>
<rect x="1121.5" y="413.5" width="59" height="59" stroke="black"/>
<rect x="1180.5" y="413.5" width="59" height="59" stroke="black"/>
<rect x="0.5" y="472.5" width="59" height="59" stroke="black"/>
<rect x="59.5" y="472.5" width="59" height="59" stroke="black"/>
<rect x="118.5" y="472.5" width="59" height="59" stroke="black"/>
<rect x="177.5" y="472.5" width="59" height="59" stroke="black"/>
<rect x="236.5" y="472.5" width="59" height="59" stroke="black"/>
<rect x="295.5" y="472.5" width="59" height="59" stroke="black"/>
<rect x="354.5" y="472.5" width="59" height="59" stroke="black"/>
<rect x="413.5" y="472.5" width="59" height="59" stroke="black"/>
<rect x="472.5" y="472.5" width="59" height="59" stroke="black"/>
<rect x="531.5" y="472.5" width="59" height="59" stroke="black"/>
<rect x="590.5" y="472.5" width="59" height="59" stroke="black"/>
<rect x="649.5" y="472.5" width="59" height="59" stroke="black"/>
<rect x="708.5" y="472.5" width="59" height="59" stroke="black"/>
<rect x="767.5" y="472.5" width="59" height="59" stroke="black"/>
<rect x="826.5" y="472.5" width="59" height="59" stroke="black"/>
<rect x="885.5" y="472.5" width="59" height="59" stroke="black"/>
<rect x="944.5" y="472.5" width="59" height="59" stroke="black"/>
<rect x="1003.5" y="472.5" width="59" height="59" stroke="black"/>
<rect x="1062.5" y="472.5" width="59" height="59" stroke="black"/>
<rect x="1121.5" y="472.5" width="59" height="59" stroke="black"/>
<rect x="1180.5" y="472.5" width="59" height="59" stroke="black"/>
<rect x="0.5" y="531.5" width="59" height="59" stroke="black"/>
<rect x="59.5" y="531.5" width="59" height="59" stroke="black"/>
<rect x="118.5" y="531.5" width="59" height="59" stroke="black"/>
<rect x="177.5" y="531.5" width="59" height="59" stroke="black"/>
<rect x="236.5" y="531.5" width="59" height="59" stroke="black"/>
<rect x="295.5" y="531.5" width="59" height="59" stroke="black"/>
<rect x="354.5" y="531.5" width="59" height="59" stroke="black"/>
<rect x="413.5" y="531.5" width="59" height="59" stroke="black"/>
<rect x="472.5" y="531.5" width="59" height="59" stroke="black"/>
<rect x="531.5" y="531.5" width="59" height="59" stroke="black"/>
<rect x="590.5" y="531.5" width="59" height="59" stroke="black"/>
<rect x="649.5" y="531.5" width="59" height="59" stroke="black"/>
<rect x="708.5" y="531.5" width="59" height="59" stroke="black"/>
<rect x="767.5" y="531.5" width="59" height="59" stroke="black"/>
<rect x="826.5" y="531.5" width="59" height="59" stroke="black"/>
<rect x="885.5" y="531.5" width="59" height="59" stroke="black"/>
<rect x="944.5" y="531.5" width="59" height="59" stroke="black"/>
<rect x="1003.5" y="531.5" width="59" height="59" stroke="black"/>
<rect x="1062.5" y="531.5" width="59" height="59" stroke="black"/>
<rect x="1121.5" y="531.5" width="59" height="59" stroke="black"/>
<rect x="1180.5" y="531.5" width="59" height="59" stroke="black"/>
<rect x="0.5" y="590.5" width="59" height="59" stroke="black"/>
<rect x="59.5" y="590.5" width="59" height="59" stroke="black"/>
<rect x="118.5" y="590.5" width="59" height="59" stroke="black"/>
<rect x="177.5" y="590.5" width="59" height="59" stroke="black"/>
<rect x="236.5" y="590.5" width="59" height="59" stroke="black"/>
<rect x="295.5" y="590.5" width="59" height="59" stroke="black"/>
<rect x="354.5" y="590.5" width="59" height="59" stroke="black"/>
<rect x="413.5" y="590.5" width="59" height="59" stroke="black"/>
<rect x="472.5" y="590.5" width="59" height="59" stroke="black"/>
<rect x="531.5" y="590.5" width="59" height="59" stroke="black"/>
<rect x="590.5" y="590.5" width="59" height="59" stroke="black"/>
<rect x="649.5" y="590.5" width="59" height="59" stroke="black"/>
<rect x="708.5" y="590.5" width="59" height="59" stroke="black"/>
<rect x="767.5" y="590.5" width="59" height="59" stroke="black"/>
<rect x="826.5" y="590.5" width="59" height="59" stroke="black"/>
<rect x="885.5" y="590.5" width="59" height="59" stroke="black"/>
<rect x="944.5" y="590.5" width="59" height="59" stroke="black"/>
<rect x="1003.5" y="590.5" width="59" height="59" stroke="black"/>
<rect x="1062.5" y="590.5" width="59" height="59" stroke="black"/>
<rect x="1121.5" y="590.5" width="59" height="59" stroke="black"/>
<rect x="1180.5" y="590.5" width="59" height="59" stroke="black"/>
</mask>
<g mask="url(#mask0_28_509)">
<rect width="1240" height="607.348" fill="url(#paint0_radial_28_509)"/>
</g>
<defs>
<radialGradient id="paint0_radial_28_509" cx="0" cy="0" r="1" gradientUnits="userSpaceOnUse" gradientTransform="translate(620 303.674) rotate(90) scale(329.373 672.465)">
<stop stop-color="#94A3B8" stop-opacity="0.06"/>
<stop offset="0.997642" stop-color="#94A3B8" stop-opacity="0"/>
</radialGradient>
</defs>
</svg>
