<svg width="91" height="20" viewBox="0 0 91 20" fill="none" xmlns="http://www.w3.org/2000/svg">
<rect x="72" y="1" width="19" height="19" rx="4" fill="#09090B"/>
<path d="M73.7998 15.0225C73.7998 14.5941 73.916 14.2933 74.1484 14.1201C74.3854 13.9469 74.6702 13.8604 75.0029 13.8604C75.3265 13.8604 75.6045 13.9469 75.8369 14.1201C76.0739 14.2933 76.1924 14.5941 76.1924 15.0225C76.1924 15.4326 76.0739 15.7288 75.8369 15.9111C75.6045 16.0934 75.3265 16.1846 75.0029 16.1846C74.6702 16.1846 74.3854 16.0934 74.1484 15.9111C73.916 15.7288 73.7998 15.4326 73.7998 15.0225ZM81.2168 8.2002C82.2422 8.2002 83.0283 8.4235 83.5752 8.87012C84.1221 9.31673 84.3955 9.99577 84.3955 10.9072V16H82.9395L82.5361 14.9609H82.4814C82.2627 15.2344 82.0394 15.4577 81.8115 15.6309C81.5837 15.804 81.3216 15.9316 81.0254 16.0137C80.7292 16.0957 80.3691 16.1367 79.9453 16.1367C79.4941 16.1367 79.0885 16.0501 78.7285 15.877C78.373 15.7038 78.0928 15.4395 77.8877 15.084C77.6826 14.724 77.5801 14.2682 77.5801 13.7168C77.5801 12.9056 77.8649 12.3086 78.4346 11.9258C79.0042 11.5384 79.8587 11.3242 80.998 11.2832L82.3242 11.2422V10.9072C82.3242 10.5062 82.2194 10.2122 82.0098 10.0254C81.8001 9.83854 81.5085 9.74512 81.1348 9.74512C80.7656 9.74512 80.4033 9.79753 80.0479 9.90234C79.6924 10.0072 79.3369 10.1393 78.9814 10.2988L78.291 8.89062C78.6966 8.67643 79.1501 8.50781 79.6514 8.38477C80.1572 8.26172 80.679 8.2002 81.2168 8.2002ZM82.3242 12.459L81.5176 12.4863C80.8431 12.5046 80.3737 12.6253 80.1094 12.8486C79.8496 13.0719 79.7197 13.3659 79.7197 13.7305C79.7197 14.0495 79.8132 14.2773 80 14.4141C80.1868 14.5462 80.4307 14.6123 80.7314 14.6123C81.1781 14.6123 81.554 14.4801 81.8594 14.2158C82.1693 13.9515 82.3242 13.5755 82.3242 13.0879V12.459ZM88.6338 8.35742V16H86.5488V8.35742H88.6338ZM87.5947 5.36328C87.9046 5.36328 88.1712 5.4362 88.3945 5.58203C88.6178 5.72331 88.7295 5.98991 88.7295 6.38184C88.7295 6.76921 88.6178 7.03809 88.3945 7.18848C88.1712 7.33431 87.9046 7.40723 87.5947 7.40723C87.2803 7.40723 87.0114 7.33431 86.7881 7.18848C86.5693 7.03809 86.46 6.76921 86.46 6.38184C86.46 5.98991 86.5693 5.72331 86.7881 5.58203C87.0114 5.4362 87.2803 5.36328 87.5947 5.36328Z" fill="#FAFAFA"/>
<path d="M1.056 16V4.8H5.92C6.624 4.8 7.23733 4.92267 7.76 5.168C8.28267 5.41333 8.688 5.76 8.976 6.208C9.264 6.656 9.408 7.184 9.408 7.792V7.984C9.408 8.656 9.248 9.2 8.928 9.616C8.608 10.032 8.21333 10.336 7.744 10.528V10.816C8.17067 10.8373 8.50133 10.9867 8.736 11.264C8.97067 11.5307 9.088 11.888 9.088 12.336V16H6.976V12.64C6.976 12.384 6.90667 12.176 6.768 12.016C6.64 11.856 6.42133 11.776 6.112 11.776H3.168V16H1.056ZM3.168 9.856H5.696C6.19733 9.856 6.58667 9.72267 6.864 9.456C7.152 9.17867 7.296 8.816 7.296 8.368V8.208C7.296 7.76 7.15733 7.40267 6.88 7.136C6.60267 6.85867 6.208 6.72 5.696 6.72H3.168V9.856ZM14.8454 16.224C14.056 16.224 13.3574 16.0587 12.7494 15.728C12.152 15.3867 11.6827 14.912 11.3414 14.304C11.0107 13.6853 10.8454 12.96 10.8454 12.128V11.936C10.8454 11.104 11.0107 10.384 11.3414 9.776C11.672 9.15733 12.136 8.68267 12.7334 8.352C13.3307 8.01067 14.024 7.84 14.8134 7.84C15.592 7.84 16.2694 8.016 16.8454 8.368C17.4214 8.70933 17.8694 9.18933 18.1894 9.808C18.5094 10.416 18.6694 11.1253 18.6694 11.936V12.624H12.8934C12.9147 13.168 13.1174 13.6107 13.5014 13.952C13.8854 14.2933 14.3547 14.464 14.9094 14.464C15.4747 14.464 15.8907 14.3413 16.1574 14.096C16.424 13.8507 16.6267 13.5787 16.7654 13.28L18.4134 14.144C18.264 14.4213 18.0454 14.7253 17.7574 15.056C17.48 15.376 17.1067 15.6533 16.6374 15.888C16.168 16.112 15.5707 16.224 14.8454 16.224ZM12.9094 11.12H16.6214C16.5787 10.6613 16.392 10.2933 16.0614 10.016C15.7414 9.73867 15.32 9.6 14.7974 9.6C14.2534 9.6 13.8214 9.73867 13.5014 10.016C13.1814 10.2933 12.984 10.6613 12.9094 11.12ZM23.7598 16.224C22.7251 16.224 21.8771 16 21.2158 15.552C20.5544 15.104 20.1544 14.464 20.0158 13.632L21.8718 13.152C21.9464 13.5253 22.0691 13.8187 22.2398 14.032C22.4211 14.2453 22.6398 14.4 22.8958 14.496C23.1624 14.5813 23.4504 14.624 23.7598 14.624C24.2291 14.624 24.5758 14.544 24.7998 14.384C25.0238 14.2133 25.1358 14.0053 25.1358 13.76C25.1358 13.5147 25.0291 13.328 24.8158 13.2C24.6024 13.0613 24.2611 12.9493 23.7918 12.864L23.3438 12.784C22.7891 12.6773 22.2824 12.5333 21.8238 12.352C21.3651 12.16 20.9971 11.8987 20.7198 11.568C20.4424 11.2373 20.3038 10.8107 20.3038 10.288C20.3038 9.49867 20.5918 8.896 21.1678 8.48C21.7438 8.05333 22.5011 7.84 23.4398 7.84C24.3251 7.84 25.0611 8.03733 25.6478 8.432C26.2344 8.82667 26.6184 9.344 26.7998 9.984L24.9278 10.56C24.8424 10.1547 24.6664 9.86667 24.3998 9.696C24.1438 9.52533 23.8238 9.44 23.4398 9.44C23.0558 9.44 22.7624 9.50933 22.5598 9.648C22.3571 9.776 22.2558 9.95733 22.2558 10.192C22.2558 10.448 22.3624 10.64 22.5758 10.768C22.7891 10.8853 23.0771 10.976 23.4398 11.04L23.8878 11.12C24.4851 11.2267 25.0238 11.3707 25.5038 11.552C25.9944 11.7227 26.3784 11.9733 26.6558 12.304C26.9438 12.624 27.0878 13.0613 27.0878 13.616C27.0878 14.448 26.7838 15.0933 26.1758 15.552C25.5784 16 24.7731 16.224 23.7598 16.224ZM32.6304 16.224C31.841 16.224 31.1317 16.064 30.5024 15.744C29.873 15.424 29.377 14.96 29.0144 14.352C28.6517 13.744 28.4704 13.0133 28.4704 12.16V11.904C28.4704 11.0507 28.6517 10.32 29.0144 9.712C29.377 9.104 29.873 8.64 30.5024 8.32C31.1317 8 31.841 7.84 32.6304 7.84C33.4197 7.84 34.129 8 34.7584 8.32C35.3877 8.64 35.8837 9.104 36.2464 9.712C36.609 10.32 36.7904 11.0507 36.7904 11.904V12.16C36.7904 13.0133 36.609 13.744 36.2464 14.352C35.8837 14.96 35.3877 15.424 34.7584 15.744C34.129 16.064 33.4197 16.224 32.6304 16.224ZM32.6304 14.432C33.249 14.432 33.761 14.2347 34.1664 13.84C34.5717 13.4347 34.7744 12.8587 34.7744 12.112V11.952C34.7744 11.2053 34.5717 10.6347 34.1664 10.24C33.7717 9.83467 33.2597 9.632 32.6304 9.632C32.0117 9.632 31.4997 9.83467 31.0944 10.24C30.689 10.6347 30.4864 11.2053 30.4864 11.952V12.112C30.4864 12.8587 30.689 13.4347 31.0944 13.84C31.4997 14.2347 32.0117 14.432 32.6304 14.432ZM38.6513 16V4.8H40.6673V16H38.6513ZM44.5653 16L42.0373 8.064H44.1813L46.0213 14.528H46.3093L48.1493 8.064H50.2933L47.7653 16H44.5653ZM55.0485 16.224C54.2592 16.224 53.5605 16.0587 52.9525 15.728C52.3552 15.3867 51.8858 14.912 51.5445 14.304C51.2138 13.6853 51.0485 12.96 51.0485 12.128V11.936C51.0485 11.104 51.2138 10.384 51.5445 9.776C51.8752 9.15733 52.3392 8.68267 52.9365 8.352C53.5338 8.01067 54.2272 7.84 55.0165 7.84C55.7952 7.84 56.4725 8.016 57.0485 8.368C57.6245 8.70933 58.0725 9.18933 58.3925 9.808C58.7125 10.416 58.8725 11.1253 58.8725 11.936V12.624H53.0965C53.1178 13.168 53.3205 13.6107 53.7045 13.952C54.0885 14.2933 54.5578 14.464 55.1125 14.464C55.6778 14.464 56.0938 14.3413 56.3605 14.096C56.6272 13.8507 56.8298 13.5787 56.9685 13.28L58.6165 14.144C58.4672 14.4213 58.2485 14.7253 57.9605 15.056C57.6832 15.376 57.3098 15.6533 56.8405 15.888C56.3712 16.112 55.7738 16.224 55.0485 16.224ZM53.1125 11.12H56.8245C56.7818 10.6613 56.5952 10.2933 56.2645 10.016C55.9445 9.73867 55.5232 9.6 55.0005 9.6C54.4565 9.6 54.0245 9.73867 53.7045 10.016C53.3845 10.2933 53.1872 10.6613 53.1125 11.12ZM59.8989 16L63.1789 10.352L59.9309 4.8H62.3309L64.5549 8.848H64.8429L67.0669 4.8H69.4669L66.2189 10.352L69.4989 16H67.0989L64.8429 11.856H64.5549L62.2989 16H59.8989Z" fill="#09090B"/>
</svg>
