<svg width="19" height="19" viewBox="0 0 19 19" fill="none" xmlns="http://www.w3.org/2000/svg">
<rect width="19" height="19" rx="4" fill="#09090B"/>
<path d="M1.7998 14.0225C1.7998 13.5941 1.91602 13.2933 2.14844 13.1201C2.38542 12.9469 2.67025 12.8604 3.00293 12.8604C3.3265 12.8604 3.60449 12.9469 3.83691 13.1201C4.07389 13.2933 4.19238 13.5941 4.19238 14.0225C4.19238 14.4326 4.07389 14.7288 3.83691 14.9111C3.60449 15.0934 3.3265 15.1846 3.00293 15.1846C2.67025 15.1846 2.38542 15.0934 2.14844 14.9111C1.91602 14.7288 1.7998 14.4326 1.7998 14.0225ZM9.2168 7.2002C10.2422 7.2002 11.0283 7.4235 11.5752 7.87012C12.1221 8.31673 12.3955 8.99577 12.3955 9.90723V15H10.9395L10.5361 13.9609H10.4814C10.2627 14.2344 10.0394 14.4577 9.81152 14.6309C9.58366 14.804 9.32161 14.9316 9.02539 15.0137C8.72917 15.0957 8.36914 15.1367 7.94531 15.1367C7.49414 15.1367 7.08854 15.0501 6.72852 14.877C6.37305 14.7038 6.09277 14.4395 5.8877 14.084C5.68262 13.724 5.58008 13.2682 5.58008 12.7168C5.58008 11.9056 5.86491 11.3086 6.43457 10.9258C7.00423 10.5384 7.85872 10.3242 8.99805 10.2832L10.3242 10.2422V9.90723C10.3242 9.50618 10.2194 9.21224 10.0098 9.02539C9.80013 8.83854 9.50846 8.74512 9.13477 8.74512C8.76562 8.74512 8.40332 8.79753 8.04785 8.90234C7.69238 9.00716 7.33691 9.13932 6.98145 9.29883L6.29102 7.89062C6.69661 7.67643 7.15007 7.50781 7.65137 7.38477C8.15723 7.26172 8.67904 7.2002 9.2168 7.2002ZM10.3242 11.459L9.51758 11.4863C8.8431 11.5046 8.3737 11.6253 8.10938 11.8486C7.84961 12.0719 7.71973 12.3659 7.71973 12.7305C7.71973 13.0495 7.81315 13.2773 8 13.4141C8.18685 13.5462 8.43066 13.6123 8.73145 13.6123C9.17806 13.6123 9.55404 13.4801 9.85938 13.2158C10.1693 12.9515 10.3242 12.5755 10.3242 12.0879V11.459ZM16.6338 7.35742V15H14.5488V7.35742H16.6338ZM15.5947 4.36328C15.9046 4.36328 16.1712 4.4362 16.3945 4.58203C16.6178 4.72331 16.7295 4.98991 16.7295 5.38184C16.7295 5.76921 16.6178 6.03809 16.3945 6.18848C16.1712 6.33431 15.9046 6.40723 15.5947 6.40723C15.2803 6.40723 15.0114 6.33431 14.7881 6.18848C14.5693 6.03809 14.46 5.76921 14.46 5.38184C14.46 4.98991 14.5693 4.72331 14.7881 4.58203C15.0114 4.4362 15.2803 4.36328 15.5947 4.36328Z" fill="#FAFAFA"/>
</svg>
