<svg width="91" height="20" viewBox="0 0 91 20" fill="none" xmlns="http://www.w3.org/2000/svg">
<rect x="72" y="1" width="19" height="19" rx="4" fill="#FAFAFA"/>
<path d="M73.7998 15.0225C73.7998 14.5941 73.916 14.2933 74.1484 14.1201C74.3854 13.9469 74.6702 13.8604 75.0029 13.8604C75.3265 13.8604 75.6045 13.9469 75.8369 14.1201C76.0739 14.2933 76.1924 14.5941 76.1924 15.0225C76.1924 15.4326 76.0739 15.7288 75.8369 15.9111C75.6045 16.0934 75.3265 16.1846 75.0029 16.1846C74.6702 16.1846 74.3854 16.0934 74.1484 15.9111C73.916 15.7288 73.7998 15.4326 73.7998 15.0225ZM81.2168 8.2002C82.2422 8.2002 83.0283 8.4235 83.5752 8.87012C84.1221 9.31673 84.3955 9.99577 84.3955 10.9072V16H82.9395L82.5361 14.9609H82.4814C82.2627 15.2344 82.0394 15.4577 81.8115 15.6309C81.5837 15.804 81.3216 15.9316 81.0254 16.0137C80.7292 16.0957 80.3691 16.1367 79.9453 16.1367C79.4941 16.1367 79.0885 16.0501 78.7285 15.877C78.373 15.7038 78.0928 15.4395 77.8877 15.084C77.6826 14.724 77.5801 14.2682 77.5801 13.7168C77.5801 12.9056 77.8649 12.3086 78.4346 11.9258C79.0042 11.5384 79.8587 11.3242 80.998 11.2832L82.3242 11.2422V10.9072C82.3242 10.5062 82.2194 10.2122 82.0098 10.0254C81.8001 9.83854 81.5085 9.74512 81.1348 9.74512C80.7656 9.74512 80.4033 9.79753 80.0479 9.90234C79.6924 10.0072 79.3369 10.1393 78.9814 10.2988L78.291 8.89062C78.6966 8.67643 79.1501 8.50781 79.6514 8.38477C80.1572 8.26172 80.679 8.2002 81.2168 8.2002ZM82.3242 12.459L81.5176 12.4863C80.8431 12.5046 80.3737 12.6253 80.1094 12.8486C79.8496 13.0719 79.7197 13.3659 79.7197 13.7305C79.7197 14.0495 79.8132 14.2773 80 14.4141C80.1868 14.5462 80.4307 14.6123 80.7314 14.6123C81.1781 14.6123 81.554 14.4801 81.8594 14.2158C82.1693 13.9515 82.3242 13.5755 82.3242 13.0879V12.459ZM88.6338 8.35742V16H86.5488V8.35742H88.6338ZM87.5947 5.36328C87.9046 5.36328 88.1712 5.4362 88.3945 5.58203C88.6178 5.72331 88.7295 5.98991 88.7295 6.38184C88.7295 6.76921 88.6178 7.03809 88.3945 7.18848C88.1712 7.33431 87.9046 7.40723 87.5947 7.40723C87.2803 7.40723 87.0114 7.33431 86.7881 7.18848C86.5693 7.03809 86.46 6.76921 86.46 6.38184C86.46 5.98991 86.5693 5.72331 86.7881 5.58203C87.0114 5.4362 87.2803 5.36328 87.5947 5.36328Z" fill="black"/>
<path d="M1.168 16V4.8H5.872C6.56533 4.8 7.17333 4.92267 7.696 5.168C8.22933 5.40267 8.64 5.744 8.928 6.192C9.22667 6.64 9.376 7.17333 9.376 7.792V7.968C9.376 8.672 9.20533 9.23733 8.864 9.664C8.53333 10.08 8.128 10.3733 7.648 10.544V10.8C8.05333 10.8213 8.37867 10.96 8.624 11.216C8.86933 11.4613 8.992 11.8187 8.992 12.288V16H7.248V12.528C7.248 12.24 7.17333 12.0107 7.024 11.84C6.87467 11.6693 6.63467 11.584 6.304 11.584H2.896V16H1.168ZM2.896 10.016H5.68C6.29867 10.016 6.77867 9.86133 7.12 9.552C7.46133 9.232 7.632 8.8 7.632 8.256V8.128C7.632 7.584 7.46133 7.15733 7.12 6.848C6.78933 6.528 6.30933 6.368 5.68 6.368H2.896V10.016ZM14.9414 16.224C14.1414 16.224 13.4427 16.0587 12.8454 15.728C12.248 15.3867 11.7787 14.912 11.4374 14.304C11.1067 13.6853 10.9414 12.9707 10.9414 12.16V11.968C10.9414 11.1467 11.1067 10.432 11.4374 9.824C11.768 9.20533 12.2267 8.73067 12.8134 8.4C13.4107 8.05867 14.0987 7.888 14.8774 7.888C15.6347 7.888 16.296 8.05867 16.8614 8.4C17.4374 8.73067 17.8854 9.19467 18.2054 9.792C18.5254 10.3893 18.6854 11.088 18.6854 11.888V12.512H12.6214C12.6427 13.2053 12.872 13.76 13.3094 14.176C13.7574 14.5813 14.312 14.784 14.9734 14.784C15.592 14.784 16.056 14.6453 16.3654 14.368C16.6854 14.0907 16.9307 13.7707 17.1014 13.408L18.4614 14.112C18.312 14.4107 18.0934 14.7253 17.8054 15.056C17.528 15.3867 17.16 15.664 16.7014 15.888C16.2427 16.112 15.656 16.224 14.9414 16.224ZM12.6374 11.248H17.0054C16.9627 10.6507 16.7494 10.1867 16.3654 9.856C15.9814 9.51467 15.48 9.344 14.8614 9.344C14.2427 9.344 13.736 9.51467 13.3414 9.856C12.9574 10.1867 12.7227 10.6507 12.6374 11.248ZM23.9011 16.224C22.8985 16.224 22.0665 16 21.4051 15.552C20.7438 15.104 20.3385 14.4267 20.1891 13.52L21.7251 13.152C21.8105 13.5893 21.9545 13.936 22.1571 14.192C22.3598 14.448 22.6105 14.6293 22.9091 14.736C23.2185 14.8427 23.5491 14.896 23.9011 14.896C24.4238 14.896 24.8238 14.7947 25.1011 14.592C25.3891 14.3893 25.5331 14.128 25.5331 13.808C25.5331 13.488 25.3998 13.2533 25.1331 13.104C24.8665 12.9547 24.4718 12.832 23.9491 12.736L23.4051 12.64C22.8718 12.544 22.3865 12.4053 21.9491 12.224C21.5118 12.0427 21.1651 11.792 20.9091 11.472C20.6531 11.152 20.5251 10.7413 20.5251 10.24C20.5251 9.49333 20.8025 8.91733 21.3571 8.512C21.9118 8.096 22.6478 7.888 23.5651 7.888C24.4505 7.888 25.1758 8.09067 25.7411 8.496C26.3171 8.89067 26.6905 9.42933 26.8611 10.112L25.3251 10.544C25.2291 10.064 25.0265 9.728 24.7171 9.536C24.4078 9.33333 24.0238 9.232 23.5651 9.232C23.1171 9.232 22.7651 9.31733 22.5091 9.488C22.2531 9.648 22.1251 9.87733 22.1251 10.176C22.1251 10.496 22.2478 10.7307 22.4931 10.88C22.7491 11.0293 23.0905 11.1413 23.5171 11.216L24.0771 11.312C24.6425 11.408 25.1598 11.5413 25.6291 11.712C26.0985 11.8827 26.4665 12.128 26.7331 12.448C27.0105 12.768 27.1491 13.1947 27.1491 13.728C27.1491 14.5173 26.8558 15.1307 26.2691 15.568C25.6825 16.0053 24.8931 16.224 23.9011 16.224ZM32.7714 16.224C31.982 16.224 31.278 16.064 30.6594 15.744C30.0514 15.4133 29.5714 14.944 29.2194 14.336C28.8674 13.728 28.6914 13.008 28.6914 12.176V11.936C28.6914 11.104 28.8674 10.3893 29.2194 9.792C29.5714 9.184 30.0514 8.71467 30.6594 8.384C31.278 8.05333 31.982 7.888 32.7714 7.888C33.5607 7.888 34.2647 8.05333 34.8834 8.384C35.502 8.71467 35.9874 9.184 36.3394 9.792C36.6914 10.3893 36.8674 11.104 36.8674 11.936V12.176C36.8674 13.008 36.6914 13.728 36.3394 14.336C35.9874 14.944 35.502 15.4133 34.8834 15.744C34.2647 16.064 33.5607 16.224 32.7714 16.224ZM32.7714 14.752C33.4967 14.752 34.0834 14.5227 34.5314 14.064C34.99 13.5947 35.2194 12.9493 35.2194 12.128V11.984C35.2194 11.1627 34.9954 10.5227 34.5474 10.064C34.0994 9.59467 33.5074 9.36 32.7714 9.36C32.0567 9.36 31.47 9.59467 31.0114 10.064C30.5634 10.5227 30.3394 11.1627 30.3394 11.984V12.128C30.3394 12.9493 30.5634 13.5947 31.0114 14.064C31.47 14.5227 32.0567 14.752 32.7714 14.752ZM38.9191 16V4.8H40.5671V16H38.9191ZM44.8369 16L42.1809 8.112H43.9249L46.0209 14.784H46.2769L48.3729 8.112H50.1169L47.4609 16H44.8369ZM55.0508 16.224C54.2508 16.224 53.5521 16.0587 52.9548 15.728C52.3574 15.3867 51.8881 14.912 51.5468 14.304C51.2161 13.6853 51.0508 12.9707 51.0508 12.16V11.968C51.0508 11.1467 51.2161 10.432 51.5468 9.824C51.8774 9.20533 52.3361 8.73067 52.9228 8.4C53.5201 8.05867 54.2081 7.888 54.9868 7.888C55.7441 7.888 56.4054 8.05867 56.9708 8.4C57.5468 8.73067 57.9948 9.19467 58.3148 9.792C58.6348 10.3893 58.7948 11.088 58.7948 11.888V12.512H52.7308C52.7521 13.2053 52.9814 13.76 53.4188 14.176C53.8668 14.5813 54.4214 14.784 55.0828 14.784C55.7014 14.784 56.1654 14.6453 56.4748 14.368C56.7948 14.0907 57.0401 13.7707 57.2108 13.408L58.5708 14.112C58.4214 14.4107 58.2028 14.7253 57.9148 15.056C57.6374 15.3867 57.2694 15.664 56.8108 15.888C56.3521 16.112 55.7654 16.224 55.0508 16.224ZM52.7468 11.248H57.1148C57.0721 10.6507 56.8588 10.1867 56.4748 9.856C56.0908 9.51467 55.5894 9.344 54.9708 9.344C54.3521 9.344 53.8454 9.51467 53.4508 9.856C53.0668 10.1867 52.8321 10.6507 52.7468 11.248ZM59.9945 16L63.4345 10.352L60.0425 4.8H62.0265L64.5545 9.12H64.8105L67.3545 4.8H69.3385L65.9465 10.352L69.3865 16H67.3865L64.8105 11.584H64.5545L61.9785 16H59.9945Z" fill="#FAFAFA"/>
</svg>
